<mxfile host="65bd71144e">
    <diagram id="vAsq1MDwtAUqE76dVWq6" name="Page-1">
        <mxGraphModel dx="971" dy="655" grid="1" gridSize="10" guides="1" tooltips="1" connect="1" arrows="1" fold="1" page="1" pageScale="1" pageWidth="1654" pageHeight="1169" math="0" shadow="0">
            <root>
                <mxCell id="0"/>
                <mxCell id="1" parent="0"/>
                <mxCell id="50" style="edgeStyle=orthogonalEdgeStyle;rounded=0;html=1;entryX=0.5;entryY=1;entryDx=0;entryDy=0;dashed=1;strokeColor=#FF0000;fontSize=20;strokeWidth=2;" parent="1" source="9" target="5" edge="1">
                    <mxGeometry relative="1" as="geometry"/>
                </mxCell>
                <mxCell id="57" style="edgeStyle=none;html=1;entryX=-0.001;entryY=0.422;entryDx=0;entryDy=0;entryPerimeter=0;strokeWidth=2;exitX=1;exitY=0.75;exitDx=0;exitDy=0;fontSize=20;" parent="1" source="9" target="29" edge="1">
                    <mxGeometry relative="1" as="geometry"/>
                </mxCell>
                <mxCell id="9" value="" style="rounded=1;whiteSpace=wrap;html=1;fontSize=20;" parent="1" vertex="1">
                    <mxGeometry x="660" y="440" width="140" height="110" as="geometry"/>
                </mxCell>
                <mxCell id="3" value="" style="endArrow=none;html=1;exitX=0;exitY=0.5;exitDx=0;exitDy=0;entryX=1;entryY=0.5;entryDx=0;entryDy=0;strokeWidth=1;fontSize=20;" parent="1" source="9" target="9" edge="1">
                    <mxGeometry width="50" height="50" relative="1" as="geometry">
                        <mxPoint x="630" y="497" as="sourcePoint"/>
                        <mxPoint x="810" y="500" as="targetPoint"/>
                        <Array as="points">
                            <mxPoint x="681" y="493"/>
                            <mxPoint x="710" y="500"/>
                            <mxPoint x="740" y="496"/>
                            <mxPoint x="770" y="500"/>
                            <mxPoint x="792" y="495"/>
                        </Array>
                    </mxGeometry>
                </mxCell>
                <mxCell id="51" style="edgeStyle=orthogonalEdgeStyle;rounded=0;html=1;entryX=0.75;entryY=0;entryDx=0;entryDy=0;dashed=1;strokeColor=#FF0000;exitX=0;exitY=0.5;exitDx=0;exitDy=0;fontSize=20;strokeWidth=2;" parent="1" source="5" target="16" edge="1">
                    <mxGeometry relative="1" as="geometry">
                        <mxPoint x="650" y="350" as="sourcePoint"/>
                    </mxGeometry>
                </mxCell>
                <mxCell id="61" value="H" style="edgeLabel;html=1;align=center;verticalAlign=middle;resizable=0;points=[];fontSize=20;" vertex="1" connectable="0" parent="51">
                    <mxGeometry x="0.0351" relative="1" as="geometry">
                        <mxPoint x="33" y="-20" as="offset"/>
                    </mxGeometry>
                </mxCell>
                <mxCell id="52" style="edgeStyle=orthogonalEdgeStyle;rounded=0;html=1;entryX=0.25;entryY=0;entryDx=0;entryDy=0;dashed=1;strokeColor=#FF0000;fontSize=20;strokeWidth=2;" parent="1" source="5" target="31" edge="1">
                    <mxGeometry relative="1" as="geometry"/>
                </mxCell>
                <mxCell id="62" value="L" style="edgeLabel;html=1;align=center;verticalAlign=middle;resizable=0;points=[];fontSize=20;" vertex="1" connectable="0" parent="52">
                    <mxGeometry x="-0.0126" y="1" relative="1" as="geometry">
                        <mxPoint x="-31" y="-19" as="offset"/>
                    </mxGeometry>
                </mxCell>
                <mxCell id="5" value="LC" style="ellipse;whiteSpace=wrap;html=1;fontSize=20;" parent="1" vertex="1">
                    <mxGeometry x="710" y="330" width="40" height="40" as="geometry"/>
                </mxCell>
                <mxCell id="19" style="edgeStyle=orthogonalEdgeStyle;rounded=0;html=1;entryX=0.508;entryY=0.167;entryDx=0;entryDy=0;entryPerimeter=0;dashed=1;strokeColor=#FF0000;fontSize=20;strokeWidth=2;" parent="1" source="16" target="26" edge="1">
                    <mxGeometry relative="1" as="geometry">
                        <mxPoint x="600" y="468.20000000000005" as="targetPoint"/>
                    </mxGeometry>
                </mxCell>
                <mxCell id="16" value="MIN" style="rounded=0;whiteSpace=wrap;html=1;fontSize=20;" parent="1" vertex="1">
                    <mxGeometry x="580" y="390" width="40" height="30" as="geometry"/>
                </mxCell>
                <mxCell id="56" style="edgeStyle=none;html=1;entryX=-0.002;entryY=0.772;entryDx=0;entryDy=0;strokeWidth=2;entryPerimeter=0;fontSize=20;" parent="1" source="26" target="9" edge="1">
                    <mxGeometry relative="1" as="geometry"/>
                </mxCell>
                <mxCell id="26" value="" style="verticalLabelPosition=bottom;align=center;html=1;verticalAlign=top;pointerEvents=1;dashed=0;shape=mxgraph.pid2valves.valve;valveType=ball;fontSize=20;" parent="1" vertex="1">
                    <mxGeometry x="575" y="510" width="50" height="30" as="geometry"/>
                </mxCell>
                <mxCell id="58" style="edgeStyle=none;html=1;strokeWidth=2;fontSize=20;" parent="1" source="29" edge="1">
                    <mxGeometry relative="1" as="geometry">
                        <mxPoint x="940" y="523" as="targetPoint"/>
                    </mxGeometry>
                </mxCell>
                <mxCell id="29" value="" style="verticalLabelPosition=bottom;align=center;html=1;verticalAlign=top;pointerEvents=1;dashed=0;shape=mxgraph.pid2valves.valve;valveType=ball;fontSize=20;" parent="1" vertex="1">
                    <mxGeometry x="840" y="510" width="50" height="30" as="geometry"/>
                </mxCell>
                <mxCell id="54" style="edgeStyle=orthogonalEdgeStyle;rounded=0;html=1;entryX=0.506;entryY=0.117;entryDx=0;entryDy=0;entryPerimeter=0;dashed=1;strokeColor=#FF0000;fontSize=20;strokeWidth=2;" parent="1" source="31" target="29" edge="1">
                    <mxGeometry relative="1" as="geometry"/>
                </mxCell>
                <mxCell id="31" value="MIN" style="rounded=0;whiteSpace=wrap;html=1;fontSize=20;" parent="1" vertex="1">
                    <mxGeometry x="845" y="390" width="40" height="30" as="geometry"/>
                </mxCell>
                <mxCell id="36" style="edgeStyle=orthogonalEdgeStyle;rounded=0;html=1;entryX=0.004;entryY=0.487;entryDx=0;entryDy=0;entryPerimeter=0;strokeWidth=2;fontSize=20;" parent="1" target="26" edge="1">
                    <mxGeometry relative="1" as="geometry">
                        <mxPoint x="520" y="525" as="sourcePoint"/>
                        <mxPoint x="560" y="494.8" as="targetPoint"/>
                    </mxGeometry>
                </mxCell>
                <mxCell id="43" style="edgeStyle=orthogonalEdgeStyle;rounded=0;html=1;entryX=0.25;entryY=0;entryDx=0;entryDy=0;dashed=1;strokeColor=#FF0000;fontSize=20;strokeWidth=2;" parent="1" target="16" edge="1">
                    <mxGeometry relative="1" as="geometry">
                        <mxPoint x="520" y="350" as="sourcePoint"/>
                        <mxPoint x="590" y="380" as="targetPoint"/>
                    </mxGeometry>
                </mxCell>
                <mxCell id="53" style="edgeStyle=orthogonalEdgeStyle;rounded=0;html=1;entryX=0.75;entryY=0;entryDx=0;entryDy=0;dashed=1;strokeColor=#FF0000;fontSize=20;strokeWidth=2;" parent="1" target="31" edge="1">
                    <mxGeometry relative="1" as="geometry">
                        <mxPoint x="940" y="350" as="sourcePoint"/>
                        <mxPoint x="985" y="320" as="targetPoint"/>
                    </mxGeometry>
                </mxCell>
            </root>
        </mxGraphModel>
    </diagram>
</mxfile>